<svg xmlns="http://www.w3.org/2000/svg" width="21.447" height="21.497" viewBox="0 0 21.447 21.497">
  <g id="Group_3" data-name="Group 3" transform="translate(-1.302 -1.252)">
    <path id="Path" d="M0,0H-4.553V4.553" transform="translate(2.302 3.368) rotate(-90)" fill="none" stroke="#8c9ba6" stroke-linecap="round" stroke-linejoin="round" stroke-miterlimit="10" stroke-width="2"/>
    <path id="Path-2" data-name="Path" d="M0,13.48A9.749,9.749,0,1,0,.333,5.3" transform="translate(2.991 2.252)" fill="none" stroke="#8c9ba6" stroke-linecap="round" stroke-linejoin="round" stroke-miterlimit="10" stroke-width="2"/>
    <path id="_" data-name="$" d="M3.313,10.7V9.579a2.615,2.615,0,0,0,1.643-.7,2.1,2.1,0,0,0,.6-1.553,2.359,2.359,0,0,0-.158-.9,2.091,2.091,0,0,0-.456-.686,3.19,3.19,0,0,0-.731-.54A10.214,10.214,0,0,0,3.1,4.691a2.727,2.727,0,0,1-.92-.529.951.951,0,0,1-.247-.686,1,1,0,0,1,.253-.723A.948.948,0,0,1,2.9,2.492a.92.92,0,0,1,.745.335,1.552,1.552,0,0,1,.278,1.01H5.552A2.734,2.734,0,0,0,4.989,2.05a2.349,2.349,0,0,0-1.558-.83h0V0h-.9V1.2a2.564,2.564,0,0,0-1.614.709A2.109,2.109,0,0,0,.309,3.471a2.331,2.331,0,0,0,.177.951,2.1,2.1,0,0,0,.5.695,3.369,3.369,0,0,0,.762.523A10.253,10.253,0,0,0,2.8,6.1a2.32,2.32,0,0,1,.869.5,1.03,1.03,0,0,1,.256.734.908.908,0,0,1-.287.706,1.117,1.117,0,0,1-.782.262,1.159,1.159,0,0,1-.914-.357,1.5,1.5,0,0,1-.318-1.027H0A2.638,2.638,0,0,0,.633,8.767a2.706,2.706,0,0,0,1.786.818h0V10.7Z" transform="translate(9.224 6.651)" fill="#8c9ba6"/>
  </g>
</svg>
