<svg xmlns="http://www.w3.org/2000/svg" width="21.534" height="21.647" viewBox="0 0 21.534 21.647">
  <g id="Group_7" data-name="Group 7" transform="translate(-1.463 -1.278)">
    <path id="Shape" d="M-1.507,15.773v0l-.8-3.442A6.969,6.969,0,0,0,0,7.144L-5.389,14.3l3.881,1.474ZM-13.912,3.752h0L-2.379,1.9A7.527,7.527,0,0,0-7.4,0a7.439,7.439,0,0,0-6.512,3.75Z" transform="translate(21.997 2.278)" fill="#fff" stroke="#8c9ba6" stroke-linecap="round" stroke-linejoin="round" stroke-miterlimit="10" stroke-width="2"/>
    <path id="Combined_Shape" data-name="Combined Shape" d="M2.309,12.329A7.01,7.01,0,0,1,0,7.144,7.275,7.275,0,0,1,7.4,0a7.275,7.275,0,0,1,7.4,7.144,7.275,7.275,0,0,1-7.4,7.144,7.68,7.68,0,0,1-1.563-.16l-4.33,1.645Z" transform="translate(2.463 6.151)" fill="none" stroke="#8c9ba6" stroke-linecap="round" stroke-linejoin="round" stroke-miterlimit="10" stroke-width="2"/>
    <circle id="Oval" cx="1" cy="1" r="1" transform="translate(5.917 12.477)" fill="#8c9ba6"/>
    <circle id="Oval_Copy" data-name="Oval Copy" cx="1" cy="1" r="1" transform="translate(8.627 12.477)" fill="#8c9ba6"/>
    <circle id="Oval_Copy_2" data-name="Oval Copy 2" cx="1" cy="1" r="1" transform="translate(11.337 12.477)" fill="#8c9ba6"/>
  </g>
</svg>
